{"glyphs":{":":{"x_min":0,"x_max":281,"ha":281,"o":"m 140 26 q 154 26 165 32 q 176 36 185 45 q 194 54 199 66 q 204 77 204 90 q 204 103 199 114 q 194 126 185 135 q 176 144 165 149 q 154 154 140 154 q 128 154 116 149 q 104 144 95 135 q 86 126 82 115 q 76 103 76 90 q 76 77 82 65 q 86 54 95 45 q 104 36 116 32 q 128 26 140 26 z m 140 316 q 154 316 165 322 q 176 326 185 335 q 194 344 199 356 q 204 367 204 380 q 204 393 200 405 q 194 416 186 425 q 177 434 165 439 q 154 444 140 444 q 128 444 116 439 q 104 434 95 425 q 86 416 82 405 q 76 393 76 380 q 76 367 82 355 q 86 344 95 335 q 104 326 116 322 q 128 316 140 316 z m 56 346 q 50 362 50 380 q 50 398 56 414 l 56 800 l 64 807 l 216 807 l 224 800 l 224 417 q 227 408 229 399 q 231 390 231 380 q 231 370 229 361 q 227 352 224 344 l 224 126 q 227 118 229 109 q 231 100 231 90 q 231 80 229 71 q 227 62 224 54 l 224 14 l 216 6 l 174 6 q 158 0 140 0 q 122 0 106 6 l 64 6 l 56 14 l 56 56 q 50 72 50 90 q 50 108 56 124 z"},"$":{"x_min":0,"x_max":559,"ha":559,"o":"m 509 532 l 502 524 l 502 334 q 502 331 503 326 q 504 322 506 318 q 509 301 509 282 q 509 263 506 246 q 505 242 504 238 q 502 232 502 230 l 502 13 l 496 6 l 337 6 l 330 0 l 228 0 l 222 6 l 64 6 l 57 13 l 57 230 q 57 232 56 238 q 54 242 54 246 q 50 263 50 282 l 57 290 l 57 478 q 57 482 56 487 q 54 492 54 495 q 50 512 50 531 q 50 550 54 567 q 54 570 56 575 q 57 580 57 584 l 57 800 l 64 806 l 222 806 l 228 813 l 330 813 l 337 806 l 496 806 l 502 800 l 502 584 q 502 580 503 576 q 504 572 505 569 q 509 550 509 532 z m 329 702 l 317 715 l 317 786 l 242 786 l 242 715 l 230 702 q 198 698 170 683 q 142 668 121 645 q 100 622 88 593 q 76 564 76 531 q 76 498 88 469 q 100 440 121 417 q 142 394 170 379 q 198 364 230 360 l 242 348 l 242 221 l 224 208 q 204 214 190 231 q 176 248 172 269 l 77 269 q 79 238 92 211 q 104 184 125 163 q 146 142 173 128 q 200 115 230 112 l 242 98 l 242 26 l 317 26 l 317 98 l 329 112 q 361 115 389 130 q 417 145 438 168 q 458 191 470 220 q 482 250 482 282 q 482 314 470 344 q 458 373 438 396 q 417 419 389 434 q 361 448 329 452 l 317 466 l 317 591 l 336 604 q 354 595 366 580 q 378 564 382 544 l 482 544 q 480 576 467 602 q 454 630 434 650 q 414 671 386 684 q 360 698 329 702 z m 224 605 l 242 592 l 242 470 l 224 458 q 200 466 186 486 q 171 506 171 532 q 171 557 186 577 q 200 597 224 605 z m 336 210 l 317 222 l 317 342 l 336 354 q 358 346 371 326 q 384 306 384 282 q 384 258 371 239 q 358 219 336 210 z"},"?":{"x_min":0,"x_max":597,"ha":597,"o":"m 298 660 q 318 660 335 652 q 352 645 365 632 q 378 620 386 602 q 394 585 394 566 q 394 539 381 518 q 369 496 346 483 l 346 482 q 324 470 305 452 q 286 434 272 412 q 258 391 249 366 q 240 342 237 316 l 366 316 q 378 352 410 372 l 410 372 l 410 373 q 436 388 456 409 q 477 430 492 454 q 506 480 514 508 q 521 536 521 566 q 521 612 503 652 q 484 692 454 722 q 423 752 382 770 q 342 788 296 788 q 268 788 240 780 q 212 772 188 757 l 187 757 q 163 743 144 724 q 124 704 110 682 q 96 658 87 632 q 78 606 77 578 l 204 578 q 208 596 216 610 q 224 626 236 636 q 248 648 264 654 q 280 660 298 660 z m 300 26 q 312 26 324 32 q 336 36 344 45 q 353 54 358 66 q 364 77 364 90 q 364 103 358 114 q 353 126 344 135 q 336 144 324 149 q 312 154 300 154 q 286 154 275 149 q 263 144 254 135 q 246 126 240 115 q 236 103 236 90 q 236 77 240 65 q 246 54 254 45 q 263 36 275 32 q 286 26 300 26 z m 334 6 q 318 0 300 0 q 282 0 266 6 l 64 6 l 56 14 l 56 558 l 50 565 q 50 574 51 584 q 52 594 52 603 q 54 607 55 612 q 56 618 56 622 l 56 800 l 64 807 l 241 807 q 245 807 249 808 q 254 810 258 810 q 276 814 298 814 q 317 814 336 810 q 340 810 346 808 q 352 807 356 807 l 534 807 l 540 800 l 540 622 q 540 618 542 614 q 543 609 544 605 q 545 595 546 585 q 547 576 547 566 q 547 546 544 527 q 543 523 542 518 q 540 512 540 508 l 540 14 l 534 6 z"},"<":{"x_min":0,"x_max":482,"ha":482,"o":"m 50 314 l 57 324 l 57 800 l 64 807 l 420 807 l 426 800 l 426 461 l 432 456 l 432 299 l 426 289 l 426 180 l 432 170 l 432 14 l 414 1 l 400 6 l 64 6 l 57 14 l 57 145 l 50 155 z m 77 306 l 77 164 l 406 33 l 406 162 l 254 222 l 254 247 l 406 308 l 406 436 z"},"'":{"x_min":0,"x_max":279,"ha":279,"o":"m 224 14 l 216 6 l 64 6 l 56 14 l 56 574 l 50 580 l 50 800 l 64 814 l 216 814 l 229 796 q 229 796 228 793 q 227 790 226 787 q 225 784 224 782 q 224 779 224 779 z m 198 787 l 76 787 l 76 594 l 130 594 z"},"=":{"x_min":0,"x_max":370,"ha":370,"o":"m 56 800 l 70 807 l 307 807 l 314 800 l 314 490 l 320 484 l 320 380 l 314 372 l 314 309 l 320 302 l 320 198 l 314 192 l 314 14 l 307 6 l 64 6 l 56 14 l 56 192 l 50 198 l 50 302 l 56 309 l 56 372 l 50 380 l 50 484 l 56 490 z m 76 392 l 294 392 l 294 470 l 76 470 z m 76 212 l 294 212 l 294 289 l 76 289 z"},"a":{"x_min":0,"x_max":912,"ha":912,"o":"m 62 807 l 366 807 l 376 814 l 536 814 l 546 807 l 850 807 l 856 800 l 856 32 l 862 18 l 850 0 l 692 0 l 682 6 l 230 6 l 220 0 l 62 0 l 50 18 l 56 32 l 56 800 z m 527 787 l 385 787 l 82 26 l 211 26 l 272 182 l 285 190 l 627 190 l 639 182 l 701 26 l 830 26 z m 468 610 l 590 306 l 577 288 l 335 288 l 322 306 l 444 610 z"},"L":{"x_min":0,"x_max":616,"ha":616,"o":"m 50 16 l 50 802 l 64 816 l 212 816 l 218 809 l 552 809 l 559 802 l 559 176 l 566 169 l 566 16 l 552 2 l 64 2 z m 76 789 l 76 29 l 539 29 l 539 156 l 212 156 l 198 169 l 198 789 z"},"3":{"x_min":0,"x_max":597,"ha":597,"o":"m 56 555 l 50 562 l 50 564 l 50 564 q 50 583 53 602 q 54 607 55 612 q 56 618 56 622 l 56 800 l 64 807 l 241 807 q 245 807 250 808 q 254 810 258 810 q 268 812 278 813 q 288 814 298 814 q 318 814 338 810 q 342 810 347 808 q 352 807 356 807 l 533 807 l 540 800 l 540 625 q 540 620 541 615 q 542 610 544 606 q 545 596 546 585 q 547 575 547 565 q 547 544 544 524 q 542 520 541 515 q 540 510 540 506 l 540 308 q 540 303 541 298 q 542 292 544 288 q 545 278 546 268 q 547 258 547 248 q 547 238 546 227 q 546 216 544 206 q 542 202 541 197 q 540 192 540 188 l 540 14 l 533 6 l 358 6 q 354 6 348 5 q 343 4 339 3 q 329 2 319 0 q 308 0 298 0 q 277 0 258 3 q 254 4 248 5 q 243 6 239 6 l 64 6 l 56 14 l 56 190 q 56 194 55 200 q 54 205 53 210 q 50 229 50 248 l 50 248 l 50 252 l 56 258 z m 298 660 q 318 660 335 652 q 352 645 366 632 q 378 619 386 602 q 394 584 394 565 q 394 548 387 532 q 381 516 370 503 q 360 490 344 482 q 330 474 312 471 l 312 342 q 330 338 344 330 q 360 322 370 310 q 381 297 387 281 q 394 266 394 248 q 394 228 386 211 q 378 194 366 180 q 352 168 335 160 q 318 152 298 152 q 280 152 264 159 q 248 166 235 177 q 222 188 214 204 q 206 220 204 238 l 77 238 q 79 193 97 154 q 116 116 146 88 q 176 59 215 42 q 254 26 298 26 q 344 26 384 44 q 425 61 455 91 q 486 121 503 161 q 520 202 520 248 q 520 290 505 328 q 490 366 462 398 l 462 416 q 490 447 506 485 q 520 522 520 565 q 520 610 503 651 q 485 691 455 721 q 424 752 384 769 q 344 787 298 787 q 254 787 215 770 q 176 754 146 725 q 116 696 97 658 q 79 619 77 575 l 204 575 q 206 593 214 609 q 222 624 235 636 q 248 647 264 654 q 280 660 298 660 z"},";":{"x_min":0,"x_max":281,"ha":281,"o":"m 140 316 q 154 316 165 322 q 176 326 185 335 q 194 344 199 356 q 204 367 204 380 q 204 393 200 405 q 194 416 186 425 q 177 434 165 439 q 154 444 140 444 q 128 444 116 439 q 104 434 95 425 q 86 416 82 405 q 76 393 76 380 q 76 367 82 355 q 86 344 95 335 q 104 326 116 322 q 128 316 140 316 z m 224 237 l 229 228 q 229 228 228 226 q 227 223 226 220 q 225 217 224 214 q 224 212 224 212 l 224 14 l 216 6 l 150 6 l 140 0 l 64 0 l 50 14 l 50 233 l 56 240 l 56 346 q 50 362 50 380 q 50 398 56 414 l 56 800 l 64 807 l 216 807 l 224 800 l 224 417 q 227 408 229 399 q 231 390 231 380 q 231 370 229 361 q 227 352 224 344 z m 198 220 l 76 220 l 76 26 l 130 26 z"},"J":{"x_min":0,"x_max":546,"ha":546,"o":"m 469 787 l 342 787 l 342 248 q 342 228 334 211 q 327 194 314 180 q 301 168 284 160 q 266 152 247 152 q 208 152 180 180 l 80 102 q 111 66 155 46 q 199 26 247 26 q 292 26 333 44 q 374 61 404 91 q 434 121 452 161 q 469 202 469 248 z m 60 807 l 322 807 l 328 814 l 482 814 l 496 800 l 496 248 q 496 228 492 210 q 492 205 490 200 q 489 194 489 190 l 489 14 l 482 6 l 306 6 q 302 6 297 5 q 292 4 288 3 q 278 2 267 0 q 257 0 247 0 q 226 0 206 3 q 202 4 197 5 q 192 6 188 6 l 60 6 l 54 14 l 54 91 l 50 96 l 52 114 l 54 116 l 54 800 z"},"V":{"x_min":0,"x_max":912,"ha":912,"o":"m 385 26 l 527 26 l 830 787 l 701 787 l 468 203 l 444 203 l 211 787 l 82 787 z m 230 807 l 682 807 l 692 814 l 850 814 l 862 796 l 856 781 l 856 14 l 850 6 l 546 6 l 536 0 l 376 0 l 366 6 l 62 6 l 56 14 l 56 781 l 50 796 l 62 814 l 220 814 z"},"\"":{"x_min":0,"x_max":516,"ha":516,"o":"m 222 807 l 294 807 l 300 814 l 454 814 l 466 796 q 466 796 465 793 q 464 790 463 787 q 462 784 461 782 q 460 779 460 779 l 460 14 l 454 6 l 64 6 l 56 14 l 56 574 l 50 580 l 50 800 l 64 814 l 216 814 z m 434 787 l 314 787 l 314 594 l 368 594 z m 198 787 l 76 787 l 76 594 l 130 594 z"},"7":{"x_min":0,"x_max":615,"ha":615,"o":"m 56 642 l 50 648 l 50 802 l 64 816 l 552 816 l 565 799 q 565 798 564 794 q 563 791 562 787 q 560 783 560 780 q 559 776 559 776 l 559 16 l 552 9 l 350 9 l 342 2 l 176 2 l 172 9 l 64 9 l 56 16 z m 76 662 l 346 662 l 360 646 l 194 29 l 331 29 l 535 789 l 76 789 z"},"S":{"x_min":0,"x_max":602,"ha":602,"o":"m 302 813 q 321 813 340 810 q 345 809 350 808 q 356 806 360 806 l 539 806 l 546 800 l 546 622 q 546 618 547 612 q 548 608 550 604 q 552 584 552 565 l 546 558 l 546 306 q 546 302 547 296 q 548 292 550 288 q 552 268 552 248 q 552 228 550 209 q 548 205 547 200 q 546 196 546 192 l 546 13 l 539 6 l 354 6 q 350 6 346 5 q 342 4 339 4 q 320 0 302 0 q 282 0 263 4 q 260 4 256 5 q 252 6 248 6 l 64 6 l 56 13 l 56 192 q 56 195 55 200 q 54 204 53 208 q 50 228 50 248 l 56 256 l 56 508 q 56 511 55 516 q 54 520 53 524 q 50 544 50 564 q 50 584 53 605 q 54 609 55 614 q 56 618 56 622 l 56 800 l 64 806 l 244 806 q 248 806 252 808 q 258 809 262 810 q 282 813 302 813 z m 302 786 q 256 786 215 769 q 174 752 143 722 q 112 692 94 651 q 76 610 76 564 q 76 519 94 479 q 112 439 142 409 q 172 379 213 361 q 253 344 298 343 l 298 344 q 318 344 335 336 q 352 328 366 316 q 378 303 386 286 q 394 268 394 249 q 394 230 386 212 q 378 195 366 182 q 352 169 335 162 q 318 154 298 154 q 281 154 265 160 q 249 166 236 177 q 224 188 215 203 q 206 218 204 236 l 77 236 q 80 191 98 153 q 117 115 148 87 q 178 59 218 43 q 258 28 302 28 q 347 28 388 45 q 429 62 460 92 q 490 122 508 162 q 526 202 526 248 q 526 294 508 335 q 490 376 458 406 q 428 436 386 453 q 346 470 300 470 l 300 470 q 280 470 262 477 q 245 484 232 497 q 218 510 211 528 q 204 545 204 565 q 204 584 211 602 q 218 619 232 632 q 244 645 262 652 q 279 660 298 660 q 316 660 332 654 q 348 648 360 637 q 373 626 381 611 q 390 596 392 578 l 526 578 q 522 623 504 661 q 485 699 455 727 q 424 755 385 771 q 346 786 302 786 z"},"}":{"x_min":0,"x_max":368,"ha":368,"o":"m 86 787 q 143 702 173 605 q 202 508 202 406 q 202 356 195 306 q 188 256 173 208 q 158 160 136 114 q 115 68 86 26 l 191 26 q 240 112 266 210 q 292 308 292 406 q 292 506 266 603 q 241 700 191 787 z m 312 800 l 312 511 q 312 502 313 493 q 314 484 316 476 q 316 458 317 441 q 318 424 318 406 q 318 389 317 372 q 316 355 316 338 q 314 329 313 320 q 312 311 312 302 l 312 14 l 304 6 l 210 6 l 199 0 l 61 0 l 50 21 l 54 27 l 54 787 l 50 792 l 61 814 l 199 814 l 210 807 l 304 807 z"},"Z":{"x_min":0,"x_max":739,"ha":739,"o":"m 682 785 l 682 179 l 689 172 l 689 14 l 676 0 l 64 0 l 52 20 l 56 28 l 56 634 l 50 641 l 50 800 l 64 814 l 676 814 l 687 794 z m 652 787 l 70 787 l 70 654 l 422 654 l 434 634 l 86 26 l 662 26 l 662 159 l 317 159 l 306 179 z"},"x":{"x_min":0,"x_max":733,"ha":733,"o":"m 649 26 l 440 400 l 440 413 l 649 787 l 510 787 l 378 552 l 355 552 l 224 787 l 84 787 l 294 413 l 294 400 l 84 26 l 224 26 l 355 262 l 378 262 l 510 26 z m 242 807 l 491 807 l 502 814 l 672 814 l 683 794 l 678 785 l 678 28 l 683 20 l 672 0 l 502 0 l 491 6 l 242 6 l 231 0 l 62 0 l 50 20 l 55 28 l 55 785 l 50 794 l 62 814 l 231 814 z"},")":{"x_min":0,"x_max":368,"ha":368,"o":"m 86 787 q 143 702 173 605 q 202 508 202 406 q 202 356 195 306 q 188 256 173 208 q 158 160 136 114 q 115 68 86 26 l 191 26 q 240 112 266 210 q 292 308 292 406 q 292 506 266 603 q 241 700 191 787 z m 312 800 l 312 511 q 312 502 313 493 q 314 484 316 476 q 316 458 317 441 q 318 424 318 406 q 318 389 317 372 q 316 355 316 338 q 314 329 313 320 q 312 311 312 302 l 312 14 l 304 6 l 210 6 l 199 0 l 61 0 l 50 21 l 54 27 l 54 787 l 50 792 l 61 814 l 199 814 l 210 807 l 304 807 z"},"&":{"x_min":0,"x_max":678,"ha":678,"o":"m 298 660 q 316 660 333 654 q 349 647 362 636 q 374 624 383 608 q 391 593 393 575 l 520 575 q 518 619 500 658 q 482 696 452 725 q 422 754 382 770 q 342 787 298 787 q 253 787 212 770 q 172 752 142 722 q 112 692 94 651 q 76 610 76 565 q 76 522 91 485 q 106 447 134 416 l 134 398 q 106 366 91 328 q 76 290 76 248 q 76 202 94 161 q 112 121 142 91 q 172 61 212 44 q 252 26 298 26 q 340 26 379 40 q 418 55 448 84 l 466 84 q 494 57 529 43 q 564 29 602 26 l 602 154 q 585 156 570 164 q 555 172 544 185 q 533 198 527 213 q 520 229 520 246 l 520 249 l 520 248 l 520 330 l 534 343 l 602 343 l 602 470 l 359 470 l 359 343 l 380 343 l 394 330 q 394 310 394 292 q 394 272 394 254 q 394 233 387 215 q 380 196 367 183 q 354 169 337 161 q 320 152 298 152 q 279 152 262 160 q 244 168 232 180 q 218 194 211 211 q 204 228 204 248 q 204 266 210 282 q 216 298 227 310 q 238 322 253 330 q 268 338 286 342 l 286 471 q 268 474 253 482 q 238 490 227 502 q 216 515 210 531 q 204 547 204 565 q 204 584 211 602 q 218 619 232 632 q 244 645 262 652 q 279 660 298 660 z m 64 807 l 241 807 q 245 807 250 808 q 254 810 258 810 q 268 812 278 813 q 288 814 298 814 q 318 814 338 810 q 342 810 347 808 q 352 807 356 807 l 616 807 l 622 800 l 622 490 l 628 484 l 628 330 l 622 323 l 622 172 l 628 166 l 628 13 l 616 0 q 606 0 595 0 q 584 1 574 3 q 570 4 565 5 q 560 6 556 6 l 358 6 q 354 6 348 5 q 343 4 339 3 q 329 2 319 0 q 308 0 298 0 q 277 0 258 3 q 254 4 248 5 q 243 6 239 6 l 64 6 l 58 14 l 58 188 q 58 192 56 197 q 54 202 54 206 q 52 216 51 226 q 50 237 50 248 q 50 258 51 268 q 52 279 54 289 q 54 293 56 298 q 58 304 58 308 l 58 506 q 58 510 56 514 q 54 520 54 524 q 52 534 51 544 q 50 554 50 565 q 50 576 51 586 q 52 596 54 606 q 54 610 56 616 q 58 621 58 625 l 58 800 z"},"_":{"x_min":0,"x_max":608,"ha":608,"o":"m 76 -31 l 76 -112 l 531 -112 l 531 -31 z m 50 -126 l 50 -31 l 63 -4 l 544 -4 l 558 -18 l 558 -126 l 544 -139 l 63 -139 z"},"v":{"x_min":0,"x_max":912,"ha":912,"o":"m 385 26 l 527 26 l 830 787 l 701 787 l 468 203 l 444 203 l 211 787 l 82 787 z m 230 807 l 682 807 l 692 814 l 850 814 l 862 796 l 856 781 l 856 14 l 850 6 l 546 6 l 536 0 l 376 0 l 366 6 l 62 6 l 56 14 l 56 781 l 50 796 l 62 814 l 220 814 z"},"O":{"x_min":0,"x_max":914,"ha":914,"o":"m 64 807 l 383 807 q 388 807 394 808 q 400 810 405 810 q 431 814 457 814 q 482 814 508 810 q 513 810 519 808 q 525 807 530 807 l 850 807 l 858 800 l 858 480 q 858 475 859 468 q 860 462 861 456 q 864 432 864 406 q 864 382 861 358 q 860 352 859 346 q 858 339 858 333 l 858 14 l 850 6 l 530 6 q 524 6 518 5 q 511 4 505 3 q 481 0 457 0 q 432 0 407 3 q 402 4 395 5 q 388 6 383 6 l 64 6 l 56 14 l 56 333 q 56 338 55 345 q 54 351 53 356 q 50 381 50 406 q 50 433 53 458 q 54 464 55 470 q 56 476 56 480 l 56 800 z m 457 787 q 404 787 356 774 q 308 760 265 735 q 222 710 188 676 q 154 641 128 598 q 104 556 90 508 q 76 459 76 406 q 76 354 90 305 q 104 256 128 214 q 153 172 188 138 q 222 103 265 78 q 307 54 356 40 q 404 26 457 26 q 510 26 558 40 q 606 54 649 78 q 692 103 726 138 q 760 172 786 215 q 810 257 824 306 q 838 354 838 406 q 838 458 824 507 q 810 556 785 598 q 760 640 726 675 q 691 710 649 735 q 606 760 558 773 q 509 787 457 787 z m 457 661 q 509 661 555 641 q 602 620 636 586 q 670 551 691 505 q 711 458 711 406 q 711 354 691 308 q 670 262 636 228 q 602 193 555 173 q 509 152 457 152 q 405 152 359 172 q 312 192 278 227 q 243 262 223 308 q 202 354 202 406 q 202 459 223 505 q 243 552 278 586 q 312 620 358 641 q 404 661 457 661 z"},"(":{"x_min":0,"x_max":368,"ha":368,"o":"m 64 807 l 158 807 l 169 814 l 307 814 l 318 792 l 314 787 l 314 27 l 318 21 l 307 0 l 169 0 l 158 6 l 64 6 l 56 14 l 56 302 q 56 311 55 320 q 54 329 52 338 q 52 355 51 372 q 50 389 50 406 q 50 424 51 441 q 52 458 52 476 q 54 484 55 493 q 56 502 56 511 l 56 800 z m 282 787 l 177 787 q 127 700 102 603 q 76 506 76 406 q 76 358 83 308 q 89 258 102 210 q 114 162 133 115 q 152 69 177 26 l 282 26 q 224 110 195 208 q 166 306 166 406 q 166 508 195 605 q 225 702 282 787 z"},"C":{"x_min":0,"x_max":798,"ha":798,"o":"m 64 807 l 383 807 q 388 807 394 808 q 400 810 405 810 q 431 814 457 814 q 482 814 508 810 q 513 810 519 808 q 525 807 530 807 l 736 807 l 742 800 l 742 697 l 748 691 l 748 672 l 742 666 l 742 140 l 744 138 l 744 119 l 742 116 l 742 14 l 736 6 l 530 6 q 524 6 518 5 q 511 4 505 3 q 481 0 457 0 q 432 0 407 3 q 402 4 395 5 q 388 6 383 6 l 64 6 l 56 14 l 56 333 q 56 338 55 345 q 54 351 53 356 q 50 381 50 406 q 50 433 53 458 q 54 464 55 470 q 56 476 56 480 l 56 800 z m 457 787 q 404 787 356 774 q 308 760 265 735 q 222 710 188 676 q 154 641 128 598 q 104 556 90 508 q 76 459 76 406 q 76 354 90 305 q 104 256 128 214 q 153 172 188 138 q 222 103 265 78 q 307 54 356 40 q 404 26 457 26 q 607 26 716 128 l 627 218 q 592 186 548 169 q 504 152 457 152 q 405 152 359 172 q 312 192 278 227 q 243 262 223 308 q 202 354 202 406 q 202 459 223 505 q 243 552 278 586 q 312 620 358 641 q 404 661 457 661 q 506 661 550 644 q 594 626 630 594 l 720 682 q 665 733 598 760 q 532 787 457 787 z"},"W":{"x_min":0,"x_max":1162,"ha":1162,"o":"m 1082 787 l 948 787 l 812 302 l 787 302 l 652 787 l 510 787 l 376 302 l 350 302 l 215 787 l 80 787 l 292 26 l 434 26 l 568 512 l 594 512 l 728 26 l 870 26 z m 234 807 l 491 807 l 500 814 l 662 814 l 671 807 l 928 807 l 937 814 l 1100 814 l 1112 796 q 1112 795 1110 788 q 1108 780 1105 772 q 1103 764 1101 757 q 1100 750 1100 750 l 1100 14 l 1092 6 l 890 6 l 880 0 l 718 0 l 710 6 l 452 6 l 444 0 l 282 0 l 272 6 l 63 6 l 56 14 l 56 774 q 56 774 55 778 q 54 781 53 785 q 52 789 51 792 q 50 796 50 796 l 63 814 l 225 814 z"},"A":{"x_min":0,"x_max":912,"ha":912,"o":"m 62 807 l 366 807 l 376 814 l 536 814 l 546 807 l 850 807 l 856 800 l 856 32 l 862 18 l 850 0 l 692 0 l 682 6 l 230 6 l 220 0 l 62 0 l 50 18 l 56 32 l 56 800 z m 527 787 l 385 787 l 82 26 l 211 26 l 272 182 l 285 190 l 627 190 l 639 182 l 701 26 l 830 26 z m 468 610 l 590 306 l 577 288 l 335 288 l 322 306 l 444 610 z"},"f":{"x_min":0,"x_max":616,"ha":616,"o":"m 76 789 l 76 29 l 198 29 l 198 332 l 212 346 l 400 346 l 400 472 l 212 472 l 198 486 l 198 648 l 212 662 l 539 662 l 539 789 z m 559 642 l 559 16 l 552 9 l 218 9 l 212 2 l 64 2 l 50 16 l 50 802 l 64 816 l 552 816 l 566 802 l 566 648 z"},"Q":{"x_min":0,"x_max":914,"ha":914,"o":"m 64 807 l 383 807 q 388 807 394 808 q 400 810 405 810 q 431 814 457 814 q 482 814 508 810 q 513 810 519 808 q 525 807 530 807 l 850 807 l 858 800 l 858 480 q 858 475 859 468 q 860 462 861 456 q 864 432 864 406 q 864 382 861 358 q 860 352 859 346 q 858 339 858 333 l 858 120 l 860 117 l 860 98 l 858 96 l 858 14 l 850 6 l 768 6 l 766 4 l 746 4 l 744 6 l 530 6 q 524 6 518 5 q 511 4 505 3 q 481 0 457 0 q 432 0 407 3 q 402 4 395 5 q 388 6 383 6 l 64 6 l 56 14 l 56 333 q 56 338 55 345 q 54 351 53 356 q 50 381 50 406 q 50 433 53 458 q 54 464 55 470 q 56 476 56 480 l 56 800 z m 457 787 q 404 787 356 774 q 308 760 265 735 q 222 710 188 676 q 154 641 128 598 q 104 556 90 508 q 76 459 76 406 q 76 354 90 305 q 104 256 128 214 q 153 172 188 138 q 222 103 265 78 q 307 54 356 40 q 404 26 457 26 q 516 26 572 44 q 628 62 676 96 l 694 94 l 756 32 l 832 108 l 769 170 l 768 188 q 802 236 820 292 q 838 348 838 406 q 838 458 824 507 q 810 556 785 598 q 760 640 726 675 q 691 710 649 735 q 606 760 558 773 q 509 787 457 787 z m 658 281 l 542 397 l 467 321 l 582 205 l 580 184 q 552 168 520 160 q 489 152 457 152 q 405 152 359 172 q 312 192 278 227 q 243 262 223 308 q 202 354 202 406 q 202 459 223 505 q 243 552 278 586 q 312 620 358 641 q 404 661 457 661 q 509 661 555 641 q 602 620 636 586 q 670 551 691 505 q 711 458 711 406 q 711 342 680 284 z"},"w":{"x_min":0,"x_max":1162,"ha":1162,"o":"m 1082 787 l 948 787 l 812 302 l 787 302 l 652 787 l 510 787 l 376 302 l 350 302 l 215 787 l 80 787 l 292 26 l 434 26 l 568 512 l 594 512 l 728 26 l 870 26 z m 234 807 l 491 807 l 500 814 l 662 814 l 671 807 l 928 807 l 937 814 l 1100 814 l 1112 796 q 1112 795 1110 788 q 1108 780 1105 772 q 1103 764 1101 757 q 1100 750 1100 750 l 1100 14 l 1092 6 l 890 6 l 880 0 l 718 0 l 710 6 l 452 6 l 444 0 l 282 0 l 272 6 l 63 6 l 56 14 l 56 774 q 56 774 55 778 q 54 781 53 785 q 52 789 51 792 q 50 796 50 796 l 63 814 l 225 814 z"},"-":{"x_min":0,"x_max":370,"ha":370,"o":"m 294 420 l 76 420 l 76 344 l 294 344 z m 56 14 l 56 324 l 50 330 l 50 434 l 56 440 l 56 800 l 64 807 l 307 807 l 314 800 l 314 440 l 320 434 l 320 330 l 314 324 l 314 14 l 307 6 l 64 6 z"},"E":{"x_min":0,"x_max":616,"ha":616,"o":"m 76 787 l 76 26 l 539 26 l 539 154 l 212 154 l 198 166 l 198 330 l 212 343 l 422 343 l 422 470 l 212 470 l 198 484 l 198 646 l 212 660 l 539 660 l 539 787 z m 559 640 l 559 174 l 566 166 l 566 14 l 552 0 l 64 0 l 50 14 l 50 800 l 64 814 l 552 814 l 566 800 l 566 646 z"},"s":{"x_min":0,"x_max":602,"ha":602,"o":"m 302 813 q 321 813 340 810 q 345 809 350 808 q 356 806 360 806 l 539 806 l 546 800 l 546 622 q 546 618 547 612 q 548 608 550 604 q 552 584 552 565 l 546 558 l 546 306 q 546 302 547 296 q 548 292 550 288 q 552 268 552 248 q 552 228 550 209 q 548 205 547 200 q 546 196 546 192 l 546 13 l 539 6 l 354 6 q 350 6 346 5 q 342 4 339 4 q 320 0 302 0 q 282 0 263 4 q 260 4 256 5 q 252 6 248 6 l 64 6 l 56 13 l 56 192 q 56 195 55 200 q 54 204 53 208 q 50 228 50 248 l 56 256 l 56 508 q 56 511 55 516 q 54 520 53 524 q 50 544 50 564 q 50 584 53 605 q 54 609 55 614 q 56 618 56 622 l 56 800 l 64 806 l 244 806 q 248 806 252 808 q 258 809 262 810 q 282 813 302 813 z m 302 786 q 256 786 215 769 q 174 752 143 722 q 112 692 94 651 q 76 610 76 564 q 76 519 94 479 q 112 439 142 409 q 172 379 213 361 q 253 344 298 343 l 298 344 q 318 344 335 336 q 352 328 366 316 q 378 303 386 286 q 394 268 394 249 q 394 230 386 212 q 378 195 366 182 q 352 169 335 162 q 318 154 298 154 q 281 154 265 160 q 249 166 236 177 q 224 188 215 203 q 206 218 204 236 l 77 236 q 80 191 98 153 q 117 115 148 87 q 178 59 218 43 q 258 28 302 28 q 347 28 388 45 q 429 62 460 92 q 490 122 508 162 q 526 202 526 248 q 526 294 508 335 q 490 376 458 406 q 428 436 386 453 q 346 470 300 470 l 300 470 q 280 470 262 477 q 245 484 232 497 q 218 510 211 528 q 204 545 204 565 q 204 584 211 602 q 218 619 232 632 q 244 645 262 652 q 279 660 298 660 q 316 660 332 654 q 348 648 360 637 q 373 626 381 611 q 390 596 392 578 l 526 578 q 522 623 504 661 q 485 699 455 727 q 424 755 385 771 q 346 786 302 786 z"},">":{"x_min":0,"x_max":482,"ha":482,"o":"m 76 436 l 76 308 l 229 247 l 229 222 l 76 162 l 76 33 l 406 164 l 406 306 z m 432 155 l 426 145 l 426 14 l 419 6 l 82 6 l 68 1 l 50 14 l 50 170 l 56 180 l 56 289 l 50 299 l 50 456 l 56 461 l 56 800 l 63 807 l 419 807 l 426 800 l 426 324 l 432 314 z"},"l":{"x_min":0,"x_max":616,"ha":616,"o":"m 50 16 l 50 802 l 64 816 l 212 816 l 218 809 l 552 809 l 559 802 l 559 176 l 566 169 l 566 16 l 552 2 l 64 2 z m 76 789 l 76 29 l 539 29 l 539 156 l 212 156 l 198 169 l 198 789 z"},"8":{"x_min":0,"x_max":597,"ha":597,"o":"m 64 809 l 252 809 q 255 809 259 810 q 263 811 266 812 q 274 812 282 813 q 290 814 298 814 q 307 814 315 813 q 323 812 332 812 q 335 811 339 810 q 342 809 346 809 l 534 809 l 540 802 l 540 622 q 540 618 542 614 q 544 608 544 604 q 547 585 547 565 q 547 555 546 545 q 546 535 544 525 q 544 521 542 516 q 540 512 540 508 l 540 305 q 540 301 542 296 q 544 291 544 287 q 547 268 547 248 q 547 238 546 228 q 546 218 544 208 q 544 204 542 199 q 540 194 540 190 l 540 16 l 534 9 l 366 9 q 362 9 356 7 q 350 5 345 4 q 322 0 298 0 q 274 0 252 4 q 247 5 241 7 q 234 9 230 9 l 64 9 l 56 16 l 56 190 q 56 194 55 199 q 54 204 53 208 q 50 228 50 248 q 50 268 53 287 q 54 291 55 296 q 56 302 56 306 l 56 508 q 56 512 55 517 q 54 522 53 526 q 50 545 50 565 q 50 585 53 604 q 54 608 55 614 q 56 619 56 623 l 56 802 z m 298 660 q 318 660 335 652 q 352 645 366 632 q 378 619 386 602 q 394 584 394 565 q 394 546 386 528 q 378 511 366 498 q 352 485 335 478 q 318 470 298 470 q 279 470 262 478 q 244 485 232 498 q 218 511 211 528 q 204 546 204 565 q 204 584 211 602 q 218 620 231 632 q 244 645 262 652 q 279 660 298 660 z m 134 398 q 106 366 91 328 q 76 290 76 248 q 76 202 94 161 q 112 121 142 91 q 172 61 212 44 q 252 26 298 26 q 344 26 384 44 q 425 61 455 91 q 486 121 503 161 q 520 202 520 248 q 520 290 505 328 q 490 366 462 398 l 462 416 q 490 447 506 485 q 520 522 520 565 q 520 610 503 651 q 485 691 455 721 q 424 752 384 769 q 344 787 298 787 q 253 787 212 770 q 172 752 142 722 q 112 692 94 651 q 76 610 76 565 q 76 522 91 485 q 106 447 134 416 z m 298 342 q 318 342 335 335 q 352 328 366 314 q 378 302 386 284 q 394 267 394 248 q 394 228 386 211 q 378 194 366 180 q 352 168 335 160 q 318 152 298 152 q 279 152 262 160 q 244 168 232 180 q 218 194 211 211 q 204 228 204 248 q 204 267 211 284 q 218 302 231 315 q 244 328 262 335 q 279 342 298 342 z"},"\\":{"x_min":0,"x_max":558,"ha":558,"o":"m 202 807 l 496 807 l 502 800 l 502 33 l 508 18 l 496 0 l 366 0 l 356 6 l 66 6 l 60 14 l 60 770 l 50 796 l 62 814 l 192 814 z m 375 26 l 476 26 l 182 787 l 82 787 z"},"e":{"x_min":0,"x_max":616,"ha":616,"o":"m 76 787 l 76 26 l 539 26 l 539 154 l 212 154 l 198 166 l 198 330 l 212 343 l 422 343 l 422 470 l 212 470 l 198 484 l 198 646 l 212 660 l 539 660 l 539 787 z m 559 640 l 559 174 l 566 166 l 566 14 l 552 0 l 64 0 l 50 14 l 50 800 l 64 814 l 552 814 l 566 800 l 566 646 z"},"b":{"x_min":0,"x_max":616,"ha":616,"o":"m 552 807 l 559 800 l 559 622 q 559 618 560 614 q 562 608 562 604 q 566 585 566 565 q 566 555 565 545 q 564 535 562 525 q 562 521 560 516 q 559 512 559 508 l 559 305 q 559 301 560 296 q 562 291 562 287 q 566 268 566 248 q 566 238 565 228 q 564 218 562 208 q 562 204 560 199 q 559 194 559 190 l 559 14 l 552 6 l 377 6 q 373 6 368 5 q 364 4 360 3 q 349 2 338 0 q 328 0 317 0 l 308 0 q 247 0 186 0 q 125 0 64 0 l 50 14 l 50 800 l 64 814 l 317 814 q 337 814 356 810 q 360 810 366 808 q 370 807 374 807 z m 317 470 l 212 470 l 198 484 l 198 646 l 212 660 l 317 660 q 336 660 354 652 q 371 645 384 632 q 397 619 404 602 q 412 584 412 565 q 412 546 404 528 q 397 510 384 498 q 372 485 354 478 q 336 470 317 470 z m 317 26 q 362 26 403 44 q 444 61 474 91 q 504 121 522 161 q 539 202 539 248 q 539 290 524 328 q 508 366 481 398 l 481 416 q 509 447 524 485 q 539 522 539 565 q 539 610 521 651 q 504 691 473 721 q 443 752 403 769 q 362 787 317 787 l 76 787 l 76 26 q 137 26 197 26 q 256 26 317 26 z m 318 342 q 337 342 354 335 q 371 328 384 314 q 397 302 404 284 q 412 267 412 248 q 412 228 404 211 q 397 194 384 180 q 371 168 354 160 q 336 152 317 152 l 316 154 l 212 154 l 198 166 l 198 330 l 212 343 l 317 343 z"},"%":{"x_min":0,"x_max":822,"ha":822,"o":"m 736 787 l 618 787 l 89 26 l 206 26 z m 758 240 q 771 210 771 176 q 771 142 758 113 l 758 14 l 752 6 l 638 6 q 634 6 629 5 q 624 4 620 2 q 602 0 584 0 q 566 0 548 2 q 544 4 540 5 q 534 6 530 6 l 224 6 l 214 0 l 64 0 l 52 21 l 56 27 l 56 588 q 56 592 55 596 q 54 600 53 603 q 50 618 50 636 q 50 652 53 670 q 54 672 55 676 q 56 680 56 683 l 56 800 l 64 807 l 186 807 q 189 807 194 808 q 200 810 203 811 q 212 812 220 813 q 228 814 236 814 q 245 814 254 813 q 262 812 270 811 q 274 810 279 808 q 284 807 288 807 l 600 807 l 600 808 l 612 814 l 762 814 l 772 792 l 758 772 z m 584 328 q 552 328 524 316 q 494 305 472 285 q 450 264 437 237 q 424 209 424 176 q 424 144 437 116 q 450 89 472 69 q 494 48 524 37 q 552 26 584 26 q 616 26 644 37 q 674 48 696 68 q 718 88 731 116 q 744 144 744 176 q 744 210 731 237 q 718 265 696 285 q 674 306 645 317 q 616 328 584 328 z m 584 246 q 570 246 556 241 q 544 236 534 226 q 524 216 518 204 q 512 191 512 176 q 512 162 518 149 q 524 136 534 127 q 544 118 556 112 q 570 107 584 107 q 598 107 611 112 q 624 118 635 127 q 645 136 651 149 q 657 162 657 176 q 657 191 651 204 q 645 216 635 226 q 624 236 611 241 q 598 246 584 246 z m 236 787 q 205 787 176 776 q 147 764 125 744 q 103 724 90 696 q 76 668 76 636 q 76 603 90 576 q 103 548 125 528 q 148 508 176 496 q 205 484 236 484 q 268 484 297 496 q 326 508 348 528 q 370 548 383 576 q 396 603 396 636 q 396 668 384 696 q 370 724 348 744 q 326 764 298 776 q 268 787 236 787 z m 236 706 q 250 706 264 700 q 277 694 287 685 q 298 676 304 663 q 310 650 310 636 q 310 621 304 608 q 298 596 287 586 q 277 576 264 571 q 250 566 236 566 q 222 566 209 571 q 196 576 186 586 q 176 595 170 608 q 164 620 164 636 q 164 650 170 663 q 176 676 186 685 q 196 694 209 700 q 222 706 236 706 z"},"m":{"x_min":0,"x_max":914,"ha":914,"o":"m 386 26 l 528 26 l 704 471 l 704 26 l 838 26 l 838 787 l 702 787 l 470 203 l 444 203 l 212 787 l 76 787 l 76 26 l 210 26 l 210 471 z m 230 807 l 684 807 l 692 814 l 850 814 l 864 800 l 864 14 l 850 0 l 692 0 l 684 6 l 546 6 l 536 0 l 377 0 l 368 6 l 230 6 l 222 0 l 64 0 l 50 14 l 50 800 l 64 814 l 222 814 z"},"#":{"x_min":0,"x_max":596,"ha":596,"o":"m 76 497 l 177 497 l 190 480 l 168 403 l 154 394 l 76 394 l 76 343 l 132 343 l 145 326 l 115 224 l 171 224 l 203 334 l 216 343 l 300 343 l 312 326 l 282 224 l 338 224 l 371 334 l 384 343 l 520 343 l 520 394 l 406 394 l 394 410 l 416 487 l 428 497 l 520 497 l 520 547 l 451 547 l 438 564 l 468 666 l 412 666 l 380 556 l 367 547 l 284 547 l 270 564 l 300 666 l 244 666 l 212 556 l 200 547 l 76 547 z m 64 807 l 533 807 l 540 800 l 540 567 l 546 560 l 546 484 l 540 477 l 540 414 l 546 406 l 546 330 l 540 323 l 540 14 l 533 6 l 64 6 l 56 14 l 56 323 l 50 330 l 50 406 l 56 414 l 56 477 l 50 484 l 50 560 l 56 567 l 56 800 z m 322 394 l 238 394 l 226 410 l 248 487 l 261 497 l 344 497 l 358 480 l 335 403 z"},",":{"x_min":0,"x_max":279,"ha":279,"o":"m 64 807 l 216 807 l 224 800 l 224 237 l 229 228 q 229 228 228 226 q 227 223 226 220 q 225 217 224 214 q 224 212 224 212 l 224 14 l 216 6 l 150 6 l 140 0 l 64 0 l 50 14 l 50 233 l 56 240 l 56 800 z m 198 220 l 76 220 l 76 26 l 130 26 z"},"n":{"x_min":0,"x_max":826,"ha":826,"o":"m 234 807 l 596 807 l 604 814 l 763 814 l 776 800 l 776 14 l 763 0 l 604 0 l 592 6 l 230 6 l 222 0 l 64 0 l 50 14 l 50 800 l 64 814 l 222 814 l 234 808 z m 750 787 l 616 787 l 616 261 l 592 254 l 216 787 l 76 787 l 76 26 l 210 26 l 210 551 l 234 558 l 610 26 l 750 26 z"},"h":{"x_min":0,"x_max":755,"ha":755,"o":"m 678 787 l 557 787 l 557 484 l 544 470 l 212 470 l 198 484 l 198 787 l 76 787 l 76 26 l 198 26 l 198 330 l 212 343 l 544 343 l 557 330 l 557 26 l 678 26 z m 218 807 l 537 807 l 544 814 l 692 814 l 705 800 l 705 14 l 692 0 l 544 0 l 537 6 l 218 6 l 212 0 l 64 0 l 50 14 l 50 800 l 64 814 l 212 814 z"},"z":{"x_min":0,"x_max":739,"ha":739,"o":"m 682 785 l 682 179 l 689 172 l 689 14 l 676 0 l 64 0 l 52 20 l 56 28 l 56 634 l 50 641 l 50 800 l 64 814 l 676 814 l 687 794 z m 652 787 l 70 787 l 70 654 l 422 654 l 434 634 l 86 26 l 662 26 l 662 159 l 317 159 l 306 179 z"},"B":{"x_min":0,"x_max":616,"ha":616,"o":"m 552 807 l 559 800 l 559 622 q 559 618 560 614 q 562 608 562 604 q 566 585 566 565 q 566 555 565 545 q 564 535 562 525 q 562 521 560 516 q 559 512 559 508 l 559 305 q 559 301 560 296 q 562 291 562 287 q 566 268 566 248 q 566 238 565 228 q 564 218 562 208 q 562 204 560 199 q 559 194 559 190 l 559 14 l 552 6 l 377 6 q 373 6 368 5 q 364 4 360 3 q 349 2 338 0 q 328 0 317 0 l 308 0 q 247 0 186 0 q 125 0 64 0 l 50 14 l 50 800 l 64 814 l 317 814 q 337 814 356 810 q 360 810 366 808 q 370 807 374 807 z m 317 470 l 212 470 l 198 484 l 198 646 l 212 660 l 317 660 q 336 660 354 652 q 371 645 384 632 q 397 619 404 602 q 412 584 412 565 q 412 546 404 528 q 397 510 384 498 q 372 485 354 478 q 336 470 317 470 z m 317 26 q 362 26 403 44 q 444 61 474 91 q 504 121 522 161 q 539 202 539 248 q 539 290 524 328 q 508 366 481 398 l 481 416 q 509 447 524 485 q 539 522 539 565 q 539 610 521 651 q 504 691 473 721 q 443 752 403 769 q 362 787 317 787 l 76 787 l 76 26 q 137 26 197 26 q 256 26 317 26 z m 318 342 q 337 342 354 335 q 371 328 384 314 q 397 302 404 284 q 412 267 412 248 q 412 228 404 211 q 397 194 384 180 q 371 168 354 160 q 336 152 317 152 l 316 154 l 212 154 l 198 166 l 198 330 l 212 343 l 317 343 z"},"K":{"x_min":0,"x_max":667,"ha":667,"o":"m 218 809 l 418 809 l 418 810 l 430 816 l 606 816 l 617 795 l 612 788 l 612 30 l 617 23 l 606 2 l 430 2 l 418 8 l 418 9 l 218 9 l 212 2 l 64 2 l 50 16 l 50 802 l 64 816 l 212 816 z m 76 789 l 76 22 l 198 22 l 198 330 l 222 338 l 436 29 l 580 29 l 322 402 l 322 416 l 580 789 l 436 789 l 222 480 l 198 488 l 198 789 z"},"R":{"x_min":0,"x_max":692,"ha":692,"o":"m 414 273 q 457 283 494 307 q 531 332 558 365 q 585 399 600 440 q 615 482 615 526 q 615 580 594 627 q 574 674 538 710 q 502 746 455 766 q 408 787 354 787 l 76 787 l 76 26 l 198 26 l 198 253 l 212 266 l 230 266 l 241 262 l 442 26 l 599 26 l 406 252 z m 628 807 l 635 800 l 635 588 q 635 584 636 578 q 638 573 638 568 q 642 548 642 526 q 642 506 638 486 q 638 481 636 475 q 635 470 635 465 l 635 26 l 638 22 q 636 16 634 11 q 631 6 628 0 l 436 0 l 424 6 l 218 6 l 212 0 l 64 0 l 50 14 l 50 800 l 64 814 l 354 814 q 376 814 397 810 q 401 810 406 808 q 412 807 416 807 z m 354 660 q 382 660 406 649 q 430 638 448 620 q 466 602 477 578 q 488 554 488 526 q 488 499 478 475 q 467 450 449 432 q 430 414 406 404 q 382 394 354 394 l 212 394 l 198 406 l 198 646 l 212 660 z"},"T":{"x_min":0,"x_max":755,"ha":755,"o":"m 698 640 l 698 14 l 692 6 l 458 6 l 452 0 l 304 0 l 297 6 l 64 6 l 56 14 l 56 640 l 50 646 l 50 800 l 64 814 l 692 814 l 705 800 l 705 646 z m 76 787 l 76 660 l 304 660 l 317 646 l 317 26 l 438 26 l 438 646 l 452 660 l 678 660 l 678 787 z"},"P":{"x_min":0,"x_max":648,"ha":648,"o":"m 572 526 q 572 580 551 627 q 530 674 494 710 q 459 746 412 766 q 364 787 311 787 l 76 787 l 76 26 l 198 26 l 198 253 l 212 266 l 311 266 q 364 266 412 287 q 459 308 494 343 q 530 378 551 426 q 572 473 572 526 z m 584 807 l 592 800 l 592 588 q 592 584 593 578 q 594 573 595 568 q 598 548 598 526 q 598 506 595 486 q 594 481 593 475 q 592 470 592 465 l 592 14 l 584 6 l 218 6 l 212 0 l 64 0 l 50 14 l 50 800 l 64 814 l 311 814 q 332 814 354 810 q 358 810 363 808 q 368 807 372 807 z m 311 660 q 338 660 362 649 q 386 638 405 620 q 423 602 434 578 q 444 554 444 526 q 444 499 434 475 q 424 450 405 432 q 387 414 363 404 q 338 394 311 394 l 212 394 l 198 406 l 198 646 l 212 660 z"},"|":{"x_min":0,"x_max":234,"ha":234,"o":"m 158 789 l 76 789 l 76 29 l 158 29 z m 64 816 l 158 816 l 184 802 l 184 16 l 172 2 l 64 2 l 50 16 l 50 802 z"},"t":{"x_min":0,"x_max":755,"ha":755,"o":"m 698 640 l 698 14 l 692 6 l 458 6 l 452 0 l 304 0 l 297 6 l 64 6 l 56 14 l 56 640 l 50 646 l 50 800 l 64 814 l 692 814 l 705 800 l 705 646 z m 76 787 l 76 660 l 304 660 l 317 646 l 317 26 l 438 26 l 438 646 l 452 660 l 678 660 l 678 787 z"},"M":{"x_min":0,"x_max":914,"ha":914,"o":"m 386 26 l 528 26 l 704 471 l 704 26 l 838 26 l 838 787 l 702 787 l 470 203 l 444 203 l 212 787 l 76 787 l 76 26 l 210 26 l 210 471 z m 230 807 l 684 807 l 692 814 l 850 814 l 864 800 l 864 14 l 850 0 l 692 0 l 684 6 l 546 6 l 536 0 l 377 0 l 368 6 l 230 6 l 222 0 l 64 0 l 50 14 l 50 800 l 64 814 l 222 814 z"},"g":{"x_min":0,"x_max":914,"ha":914,"o":"m 64 807 l 383 807 q 388 807 394 808 q 400 810 405 810 q 431 814 457 814 q 482 814 509 810 q 514 810 520 808 q 526 807 530 807 l 850 807 l 858 800 l 858 478 l 864 471 l 864 404 q 864 392 863 380 q 862 368 860 356 q 860 350 859 344 q 858 339 858 334 l 858 14 l 850 6 l 530 6 q 525 6 518 5 q 512 4 506 3 q 482 0 457 0 q 432 0 407 3 q 402 4 395 5 q 388 6 383 6 l 64 6 l 56 14 l 56 333 q 56 338 55 344 q 54 350 53 355 q 50 380 50 406 q 50 433 53 458 q 54 464 55 470 q 56 476 56 480 l 56 800 z m 457 787 q 404 787 356 774 q 308 760 265 735 q 222 710 188 676 q 154 641 128 598 q 104 556 90 508 q 76 459 76 406 q 76 354 90 305 q 104 256 128 214 q 153 172 188 138 q 222 103 265 78 q 307 54 356 40 q 404 26 457 26 q 509 26 557 40 q 606 54 648 78 q 690 102 725 137 q 760 172 785 214 q 810 256 824 304 q 838 352 838 404 l 838 458 l 426 458 l 426 350 l 688 350 l 700 333 q 688 293 664 260 q 640 226 608 203 q 576 179 537 166 q 498 152 457 152 q 405 152 359 172 q 312 192 278 227 q 243 262 223 308 q 202 354 202 406 q 202 459 223 505 q 243 552 278 586 q 312 620 358 641 q 404 661 457 661 q 504 661 548 644 q 592 627 627 596 l 716 685 q 664 734 596 761 q 530 787 457 787 z"},"j":{"x_min":0,"x_max":546,"ha":546,"o":"m 469 787 l 342 787 l 342 248 q 342 228 334 211 q 327 194 314 180 q 301 168 284 160 q 266 152 247 152 q 208 152 180 180 l 80 102 q 111 66 155 46 q 199 26 247 26 q 292 26 333 44 q 374 61 404 91 q 434 121 452 161 q 469 202 469 248 z m 60 807 l 322 807 l 328 814 l 482 814 l 496 800 l 496 248 q 496 228 492 210 q 492 205 490 200 q 489 194 489 190 l 489 14 l 482 6 l 306 6 q 302 6 297 5 q 292 4 288 3 q 278 2 267 0 q 257 0 247 0 q 226 0 206 3 q 202 4 197 5 q 192 6 188 6 l 60 6 l 54 14 l 54 91 l 50 96 l 52 114 l 54 116 l 54 800 z"},"i":{"x_min":0,"x_max":274,"ha":274,"o":"m 198 789 l 76 789 l 76 29 l 198 29 z m 64 816 l 210 816 l 224 802 l 224 16 l 212 2 l 64 2 l 50 16 l 50 802 z"},"y":{"x_min":0,"x_max":724,"ha":724,"o":"m 443 6 l 436 0 l 288 0 l 282 6 l 62 6 l 56 14 l 56 782 l 50 796 l 62 814 l 232 814 l 242 807 l 483 807 l 493 814 l 662 814 l 674 796 l 669 782 l 669 14 l 662 6 z m 423 26 l 423 243 l 424 248 l 642 787 l 502 787 l 374 473 l 350 473 l 222 787 l 82 787 l 300 248 l 298 247 l 302 243 l 302 26 z"},"@":{"x_min":0,"x_max":597,"ha":597,"o":"m 298 0 q 277 0 258 3 q 254 4 248 5 q 243 6 239 6 l 64 6 l 56 14 l 56 190 q 56 194 55 200 q 54 206 53 210 q 50 228 50 248 q 50 267 53 286 q 54 290 55 296 q 56 302 56 306 l 56 558 l 50 566 q 50 584 53 604 q 54 608 55 614 q 56 619 56 623 l 56 800 l 64 807 l 241 807 q 245 807 250 808 q 256 810 260 810 q 279 814 298 814 q 318 814 336 810 q 341 810 346 808 q 352 807 356 807 l 534 807 l 540 800 l 540 623 q 540 619 542 614 q 544 610 544 606 q 546 596 546 586 q 547 576 547 566 l 546 13 l 533 0 z m 520 26 l 520 566 q 520 611 503 651 q 485 692 455 722 q 424 752 384 770 q 344 787 298 787 q 254 787 216 771 q 176 754 147 726 q 117 698 98 660 q 80 622 77 578 l 204 578 q 207 596 215 611 q 224 626 236 637 q 249 648 265 654 q 281 660 298 660 q 318 660 335 653 q 352 646 366 632 q 378 620 386 602 q 394 585 394 566 l 394 468 q 388 466 384 463 q 380 460 376 456 q 358 462 338 466 q 318 470 298 470 q 252 470 212 452 q 172 435 142 405 q 112 374 94 334 q 76 294 76 248 q 76 202 94 162 q 112 122 142 91 q 172 61 212 44 q 253 26 298 26 z m 204 248 q 204 268 211 285 q 218 302 232 315 q 244 328 262 336 q 279 343 298 343 q 318 343 335 336 q 352 328 366 315 q 378 302 386 285 q 394 268 394 248 q 394 228 394 208 q 394 188 394 167 l 380 153 l 298 153 q 279 153 262 160 q 244 168 231 181 q 218 194 211 211 q 204 228 204 248 z"},".":{"x_min":0,"x_max":281,"ha":281,"o":"m 140 26 q 154 26 165 32 q 176 36 185 45 q 194 54 199 66 q 204 77 204 90 q 204 103 199 114 q 194 126 185 135 q 176 144 165 149 q 154 154 140 154 q 128 154 116 149 q 104 144 95 135 q 86 126 82 115 q 76 103 76 90 q 76 77 82 65 q 86 54 95 45 q 104 36 116 32 q 128 26 140 26 z m 64 807 l 216 807 l 224 800 l 224 126 q 227 118 229 109 q 231 100 231 90 q 231 80 229 71 q 227 62 224 54 l 224 14 l 216 6 l 174 6 q 158 0 140 0 q 122 0 106 6 l 64 6 l 56 14 l 56 56 q 50 72 50 90 q 50 108 56 124 l 56 800 z"},"p":{"x_min":0,"x_max":648,"ha":648,"o":"m 572 526 q 572 580 551 627 q 530 674 494 710 q 459 746 412 766 q 364 787 311 787 l 76 787 l 76 26 l 198 26 l 198 253 l 212 266 l 311 266 q 364 266 412 287 q 459 308 494 343 q 530 378 551 426 q 572 473 572 526 z m 584 807 l 592 800 l 592 588 q 592 584 593 578 q 594 573 595 568 q 598 548 598 526 q 598 506 595 486 q 594 481 593 475 q 592 470 592 465 l 592 14 l 584 6 l 218 6 l 212 0 l 64 0 l 50 14 l 50 800 l 64 814 l 311 814 q 332 814 354 810 q 358 810 363 808 q 368 807 372 807 z m 311 660 q 338 660 362 649 q 386 638 405 620 q 423 602 434 578 q 444 554 444 526 q 444 499 434 475 q 424 450 405 432 q 387 414 363 404 q 338 394 311 394 l 212 394 l 198 406 l 198 646 l 212 660 z"},"X":{"x_min":0,"x_max":733,"ha":733,"o":"m 649 26 l 440 400 l 440 413 l 649 787 l 510 787 l 378 552 l 355 552 l 224 787 l 84 787 l 294 413 l 294 400 l 84 26 l 224 26 l 355 262 l 378 262 l 510 26 z m 242 807 l 491 807 l 502 814 l 672 814 l 683 794 l 678 785 l 678 28 l 683 20 l 672 0 l 502 0 l 491 6 l 242 6 l 231 0 l 62 0 l 50 20 l 55 28 l 55 785 l 50 794 l 62 814 l 231 814 z"},"*":{"x_min":0,"x_max":372,"ha":372,"o":"m 315 726 l 322 712 l 318 694 l 315 693 l 315 664 l 318 662 l 322 644 l 315 630 l 315 14 l 308 6 l 64 6 l 58 14 l 58 630 l 50 644 l 55 662 l 58 664 l 58 693 l 55 694 l 50 712 l 58 726 l 58 800 l 64 807 l 141 807 l 148 814 l 224 814 l 232 807 l 308 807 l 315 800 z m 212 745 l 212 788 l 161 787 l 161 745 l 141 734 l 105 754 l 80 711 l 116 690 l 116 667 l 80 646 l 105 602 l 141 624 l 161 612 l 161 570 l 212 570 l 212 612 l 232 624 l 268 602 l 293 646 l 256 667 l 256 690 l 293 711 l 268 754 l 232 734 z"},"Y":{"x_min":0,"x_max":724,"ha":724,"o":"m 443 6 l 436 0 l 288 0 l 282 6 l 62 6 l 56 14 l 56 782 l 50 796 l 62 814 l 232 814 l 242 807 l 483 807 l 493 814 l 662 814 l 674 796 l 669 782 l 669 14 l 662 6 z m 423 26 l 423 243 l 424 248 l 642 787 l 502 787 l 374 473 l 350 473 l 222 787 l 82 787 l 300 248 l 298 247 l 302 243 l 302 26 z"},"c":{"x_min":0,"x_max":798,"ha":798,"o":"m 64 807 l 383 807 q 388 807 394 808 q 400 810 405 810 q 431 814 457 814 q 482 814 508 810 q 513 810 519 808 q 525 807 530 807 l 736 807 l 742 800 l 742 697 l 748 691 l 748 672 l 742 666 l 742 140 l 744 138 l 744 119 l 742 116 l 742 14 l 736 6 l 530 6 q 524 6 518 5 q 511 4 505 3 q 481 0 457 0 q 432 0 407 3 q 402 4 395 5 q 388 6 383 6 l 64 6 l 56 14 l 56 333 q 56 338 55 345 q 54 351 53 356 q 50 381 50 406 q 50 433 53 458 q 54 464 55 470 q 56 476 56 480 l 56 800 z m 457 787 q 404 787 356 774 q 308 760 265 735 q 222 710 188 676 q 154 641 128 598 q 104 556 90 508 q 76 459 76 406 q 76 354 90 305 q 104 256 128 214 q 153 172 188 138 q 222 103 265 78 q 307 54 356 40 q 404 26 457 26 q 607 26 716 128 l 627 218 q 592 186 548 169 q 504 152 457 152 q 405 152 359 172 q 312 192 278 227 q 243 262 223 308 q 202 354 202 406 q 202 459 223 505 q 243 552 278 586 q 312 620 358 641 q 404 661 457 661 q 506 661 550 644 q 594 626 630 594 l 720 682 q 665 733 598 760 q 532 787 457 787 z"},"!":{"x_min":0,"x_max":281,"ha":281,"o":"m 140 26 q 154 26 165 32 q 176 36 185 45 q 194 54 199 66 q 204 77 204 90 q 204 103 199 114 q 194 126 185 135 q 176 144 165 149 q 154 154 140 154 q 128 154 116 149 q 104 144 95 135 q 86 126 82 115 q 76 103 76 90 q 76 77 82 65 q 86 54 95 45 q 104 36 116 32 q 128 26 140 26 z m 64 814 l 216 814 l 230 800 l 230 303 l 224 296 l 224 126 q 227 118 229 109 q 231 100 231 90 q 231 80 229 71 q 227 62 224 54 l 224 14 l 216 6 l 174 6 q 158 0 140 0 q 122 0 106 6 l 64 6 l 56 14 l 56 56 q 50 72 50 90 q 50 108 56 124 l 56 296 l 50 303 l 50 800 z m 204 787 l 76 787 l 76 316 l 204 316 z"},"/":{"x_min":0,"x_max":558,"ha":558,"o":"m 476 787 l 376 787 l 82 26 l 183 26 z m 366 814 l 496 814 l 508 796 l 498 770 l 498 14 l 492 6 l 202 6 l 192 0 l 62 0 l 50 18 l 56 33 l 56 800 l 62 807 l 356 807 z"},"[":{"x_min":0,"x_max":377,"ha":377,"o":"m 76 787 l 76 26 l 300 26 l 300 154 l 212 154 l 198 166 l 198 646 l 212 660 l 300 660 l 300 787 z m 320 640 l 320 174 l 327 166 l 327 14 l 314 0 l 64 0 l 50 14 l 50 800 l 64 814 l 314 814 l 327 800 l 327 646 z"},"6":{"x_min":0,"x_max":597,"ha":597,"o":"m 298 470 q 259 470 222 456 l 204 468 l 204 565 q 204 584 211 602 q 218 619 232 632 q 244 645 262 652 q 279 660 298 660 q 316 660 332 654 q 348 648 360 637 q 372 626 381 611 q 390 596 392 578 l 520 578 q 517 622 498 660 q 480 698 450 726 q 420 754 381 771 q 342 787 298 787 q 253 787 212 770 q 172 752 142 722 q 112 692 94 651 q 76 610 76 565 l 76 248 q 76 202 94 161 q 112 121 142 91 q 172 61 212 44 q 252 26 298 26 q 344 26 384 44 q 425 61 455 91 q 486 121 503 161 q 520 202 520 248 q 520 293 503 334 q 486 374 455 404 q 425 434 384 452 q 344 470 298 470 z m 64 807 l 241 807 q 245 807 250 808 q 254 810 258 810 q 268 812 278 813 q 288 814 298 814 q 318 814 338 810 q 342 810 347 808 q 352 807 356 807 l 534 807 l 540 800 l 540 622 q 540 618 542 614 q 544 608 544 604 q 547 585 547 565 l 540 558 l 540 305 q 540 301 542 296 q 544 291 544 287 q 547 268 547 248 q 547 238 546 228 q 546 218 544 208 q 544 204 542 199 q 540 194 540 190 l 540 14 l 534 6 l 358 6 q 354 6 348 5 q 343 4 339 3 q 329 2 319 0 q 308 0 298 0 q 277 0 258 3 q 254 4 248 5 q 243 6 239 6 l 64 6 l 56 14 l 56 190 q 56 194 55 200 q 54 205 53 210 q 50 228 50 248 l 50 565 q 50 584 53 603 q 54 608 55 613 q 56 618 56 622 l 56 800 z m 298 342 q 318 342 335 335 q 352 328 366 314 q 378 302 386 284 q 394 267 394 248 q 394 228 386 211 q 378 194 366 180 q 352 168 335 160 q 318 152 298 152 q 279 152 262 160 q 244 168 232 180 q 218 194 211 211 q 204 228 204 248 q 204 267 211 284 q 218 302 231 315 q 244 328 262 335 q 279 342 298 342 z"},"r":{"x_min":0,"x_max":692,"ha":692,"o":"m 414 273 q 457 283 494 307 q 531 332 558 365 q 585 399 600 440 q 615 482 615 526 q 615 580 594 627 q 574 674 538 710 q 502 746 455 766 q 408 787 354 787 l 76 787 l 76 26 l 198 26 l 198 253 l 212 266 l 230 266 l 241 262 l 442 26 l 599 26 l 406 252 z m 628 807 l 635 800 l 635 588 q 635 584 636 578 q 638 573 638 568 q 642 548 642 526 q 642 506 638 486 q 638 481 636 475 q 635 470 635 465 l 635 26 l 638 22 q 636 16 634 11 q 631 6 628 0 l 436 0 l 424 6 l 218 6 l 212 0 l 64 0 l 50 14 l 50 800 l 64 814 l 354 814 q 376 814 397 810 q 401 810 406 808 q 412 807 416 807 z m 354 660 q 382 660 406 649 q 430 638 448 620 q 466 602 477 578 q 488 554 488 526 q 488 499 478 475 q 467 450 449 432 q 430 414 406 404 q 382 394 354 394 l 212 394 l 198 406 l 198 646 l 212 660 z"},"2":{"x_min":0,"x_max":597,"ha":597,"o":"m 298 660 q 318 660 335 652 q 352 645 366 632 q 378 619 386 602 q 394 584 394 565 q 394 545 386 528 q 378 511 366 498 q 353 486 336 478 q 318 470 299 470 l 298 470 q 254 470 213 452 q 172 434 142 404 q 112 374 94 334 q 76 294 76 248 q 76 192 77 137 q 77 82 78 26 l 520 26 l 520 154 l 217 154 l 204 166 l 204 248 q 204 267 211 284 q 218 302 232 314 q 244 328 262 335 q 278 342 298 342 l 298 343 q 344 343 384 360 q 425 378 455 408 q 486 438 503 479 q 520 519 520 565 q 520 610 503 651 q 485 691 455 721 q 424 752 384 769 q 344 787 298 787 q 254 787 216 771 q 176 754 147 726 q 117 698 98 660 q 80 622 77 578 l 204 578 q 207 596 216 611 q 224 626 236 637 q 249 648 265 654 q 281 660 298 660 z m 58 558 l 50 565 q 50 576 51 586 q 52 596 54 606 q 54 610 56 616 q 58 621 58 625 l 58 800 l 64 807 l 241 807 q 245 807 250 808 q 254 810 258 810 q 268 812 278 813 q 288 814 298 814 q 318 814 338 810 q 342 810 347 808 q 352 807 356 807 l 534 807 l 540 800 l 540 622 q 540 618 542 614 q 544 608 544 604 q 547 585 547 565 q 547 555 546 545 q 546 535 544 525 q 544 521 542 516 q 540 512 540 508 l 540 174 l 547 166 l 547 14 l 534 0 l 64 0 l 50 14 l 50 248 q 50 258 51 268 q 52 279 54 290 q 54 294 56 298 q 58 304 58 308 z"},"{":{"x_min":0,"x_max":368,"ha":368,"o":"m 64 807 l 158 807 l 169 814 l 307 814 l 318 792 l 314 787 l 314 27 l 318 21 l 307 0 l 169 0 l 158 6 l 64 6 l 56 14 l 56 302 q 56 311 55 320 q 54 329 52 338 q 52 355 51 372 q 50 389 50 406 q 50 424 51 441 q 52 458 52 476 q 54 484 55 493 q 56 502 56 511 l 56 800 z m 282 787 l 177 787 q 127 700 102 603 q 76 506 76 406 q 76 358 83 308 q 89 258 102 210 q 114 162 133 115 q 152 69 177 26 l 282 26 q 224 110 195 208 q 166 306 166 406 q 166 508 195 605 q 225 702 282 787 z"},"9":{"x_min":0,"x_max":597,"ha":597,"o":"m 394 344 l 394 248 q 394 228 386 211 q 378 194 366 180 q 352 168 335 160 q 318 152 298 152 q 281 152 265 159 q 249 165 236 176 q 224 187 215 202 q 207 217 204 234 l 77 234 q 80 191 98 153 q 117 114 147 86 q 176 58 216 42 q 254 26 298 26 q 344 26 384 44 q 425 61 455 91 q 486 121 503 161 q 520 202 520 248 l 520 565 q 520 610 503 651 q 485 691 455 721 q 424 752 384 769 q 344 787 298 787 q 253 787 212 770 q 172 752 142 722 q 112 692 94 651 q 76 610 76 565 q 76 519 94 479 q 112 438 142 408 q 172 378 212 360 q 252 343 298 343 q 318 343 338 347 q 358 350 376 357 z m 534 6 l 356 6 q 352 6 346 4 q 341 3 336 2 q 318 0 298 0 q 279 0 260 2 q 256 3 250 4 q 245 6 241 6 l 64 6 l 56 13 l 56 190 q 56 194 55 200 q 54 205 53 210 q 50 228 50 248 l 56 254 l 56 508 q 56 512 55 517 q 54 522 53 527 q 50 546 50 565 q 50 584 53 603 q 54 608 55 613 q 56 618 56 622 l 56 800 l 64 806 l 239 806 q 243 806 248 808 q 254 809 258 810 q 277 814 298 814 q 308 814 319 812 q 329 812 339 810 q 343 809 348 808 q 354 806 358 806 l 534 806 l 540 800 l 540 622 q 540 618 542 614 q 544 608 544 604 q 547 585 547 565 l 547 248 q 547 238 546 228 q 546 218 544 208 q 544 204 542 199 q 540 194 540 190 l 540 13 z m 298 470 q 279 470 262 478 q 244 485 232 498 q 218 511 211 528 q 204 546 204 565 q 204 584 211 602 q 218 619 232 632 q 244 645 262 652 q 279 660 298 660 q 318 660 335 652 q 352 645 366 632 q 378 619 386 602 q 394 584 394 565 q 394 546 386 528 q 378 510 366 498 q 353 485 336 478 q 318 470 298 470 z"}," ":{"x_min":0,"x_max":300,"ha":300,"o":""},"I":{"x_min":0,"x_max":274,"ha":274,"o":"m 198 789 l 76 789 l 76 29 l 198 29 z m 64 816 l 210 816 l 224 802 l 224 16 l 212 2 l 64 2 l 50 16 l 50 802 z"},"H":{"x_min":0,"x_max":755,"ha":755,"o":"m 678 787 l 557 787 l 557 484 l 544 470 l 212 470 l 198 484 l 198 787 l 76 787 l 76 26 l 198 26 l 198 330 l 212 343 l 544 343 l 557 330 l 557 26 l 678 26 z m 218 807 l 537 807 l 544 814 l 692 814 l 705 800 l 705 14 l 692 0 l 544 0 l 537 6 l 218 6 l 212 0 l 64 0 l 50 14 l 50 800 l 64 814 l 212 814 z"},"4":{"x_min":0,"x_max":596,"ha":596,"o":"m 204 300 l 277 464 l 302 458 l 302 295 l 289 282 l 216 282 z m 56 312 l 56 802 l 64 809 l 279 809 l 289 816 l 437 816 l 444 809 l 533 809 l 540 802 l 540 302 l 546 295 l 546 142 l 540 134 l 540 16 l 533 9 l 444 9 l 437 2 l 289 2 l 282 9 l 64 9 l 56 16 l 56 134 l 50 142 l 50 295 q 50 298 52 304 q 55 310 56 312 z m 298 789 l 76 292 l 76 154 l 289 154 l 302 142 l 302 29 l 424 29 l 424 142 l 437 154 l 520 154 l 520 282 l 437 282 l 424 295 l 424 789 z"},"~":{"x_min":0,"x_max":494,"ha":494,"o":"m 76 364 q 80 374 88 385 q 94 396 104 405 q 114 414 124 421 q 136 427 148 427 q 161 427 176 418 q 192 408 208 394 q 224 380 242 364 q 260 348 280 334 q 299 320 319 311 q 340 302 361 302 q 392 302 418 322 l 418 484 q 412 474 406 463 q 399 452 391 442 q 382 433 372 427 q 362 420 348 420 q 334 420 318 430 q 303 439 286 453 q 270 467 252 483 q 234 500 215 514 q 196 528 175 537 q 154 546 133 546 q 118 546 103 541 q 88 536 76 526 z m 56 308 l 50 309 l 50 533 q 51 534 53 539 q 56 544 56 544 l 56 802 l 63 809 l 431 809 l 438 802 l 438 540 l 444 538 l 444 315 l 440 304 l 438 304 l 438 16 l 431 9 l 63 9 l 56 16 z"},"D":{"x_min":0,"x_max":755,"ha":755,"o":"m 692 807 l 698 800 l 698 480 q 698 475 700 468 q 701 462 702 456 q 705 432 705 406 q 705 382 702 358 q 702 352 700 346 q 698 339 698 333 l 698 14 l 692 6 l 372 6 q 366 6 360 5 q 354 4 348 3 q 323 0 298 0 l 64 0 l 50 14 l 50 800 l 64 814 l 298 814 q 324 814 350 810 q 356 810 361 808 q 367 807 372 807 z m 298 787 l 76 787 l 76 26 l 298 26 q 350 26 399 40 q 448 54 490 78 q 532 103 567 138 q 602 172 626 215 q 652 257 665 306 q 678 354 678 406 q 678 458 665 507 q 651 556 626 598 q 602 640 567 675 q 532 710 490 735 q 448 760 399 773 q 350 787 298 787 z m 298 152 l 236 152 l 210 166 l 210 648 l 222 661 l 298 661 q 350 661 396 641 q 442 620 477 586 q 512 551 532 505 q 552 458 552 406 q 552 354 532 308 q 512 262 477 228 q 442 193 396 173 q 350 152 298 152 z"},"^":{"x_min":0,"x_max":568,"ha":568,"o":"m 364 814 l 374 807 l 506 807 l 512 800 l 512 464 l 518 450 l 512 441 l 512 14 l 506 6 l 62 6 l 56 14 l 56 441 l 50 450 l 56 464 l 56 800 l 62 807 l 194 807 l 204 814 z m 355 787 l 213 787 l 82 458 l 211 458 l 272 610 l 296 610 l 357 458 l 486 458 z"},"0":{"x_min":0,"x_max":597,"ha":597,"o":"m 64 809 l 252 809 q 255 809 259 810 q 263 811 266 812 q 274 812 282 813 q 290 814 298 814 q 307 814 315 813 q 323 812 332 812 q 335 811 339 810 q 342 809 346 809 l 534 809 l 540 802 l 540 622 q 540 618 542 614 q 544 608 544 604 q 547 585 547 565 l 547 248 q 547 238 546 228 q 546 218 544 208 q 544 204 542 199 q 540 194 540 190 l 540 16 l 534 9 l 366 9 q 362 9 356 7 q 350 5 345 4 q 322 0 298 0 q 274 0 252 4 q 247 5 241 7 q 234 9 230 9 l 64 9 l 56 16 l 56 190 q 56 194 55 199 q 54 204 53 208 q 50 228 50 248 l 50 565 q 50 585 53 604 q 54 608 55 614 q 56 619 56 623 l 56 802 z m 298 660 q 318 660 335 652 q 352 645 366 632 q 378 619 386 602 q 394 584 394 565 l 394 248 q 394 228 386 211 q 378 194 366 180 q 352 168 335 160 q 318 152 298 152 q 279 152 262 160 q 244 168 232 180 q 218 194 211 211 q 204 228 204 248 l 204 565 q 204 584 211 602 q 218 620 231 632 q 244 645 262 652 q 279 660 298 660 z m 520 248 l 520 565 q 520 610 503 651 q 485 691 455 721 q 424 752 384 769 q 344 787 298 787 q 253 787 212 770 q 172 752 142 722 q 112 692 94 651 q 76 610 76 565 l 76 248 q 76 202 94 161 q 112 121 142 91 q 172 61 212 44 q 252 26 298 26 q 345 26 386 43 q 426 60 456 90 q 486 120 503 160 q 520 201 520 248 z"},"F":{"x_min":0,"x_max":616,"ha":616,"o":"m 76 789 l 76 29 l 198 29 l 198 332 l 212 346 l 400 346 l 400 472 l 212 472 l 198 486 l 198 648 l 212 662 l 539 662 l 539 789 z m 559 642 l 559 16 l 552 9 l 218 9 l 212 2 l 64 2 l 50 16 l 50 802 l 64 816 l 552 816 l 566 802 l 566 648 z"},"k":{"x_min":0,"x_max":667,"ha":667,"o":"m 218 809 l 418 809 l 418 810 l 430 816 l 606 816 l 617 795 l 612 788 l 612 30 l 617 23 l 606 2 l 430 2 l 418 8 l 418 9 l 218 9 l 212 2 l 64 2 l 50 16 l 50 802 l 64 816 l 212 816 z m 76 789 l 76 22 l 198 22 l 198 330 l 222 338 l 436 29 l 580 29 l 322 402 l 322 416 l 580 789 l 436 789 l 222 480 l 198 488 l 198 789 z"},"u":{"x_min":0,"x_max":755,"ha":755,"o":"m 218 807 l 537 807 l 544 814 l 692 814 l 705 800 l 705 319 q 705 309 704 298 q 702 288 701 278 q 700 274 700 270 q 698 265 698 261 l 698 14 l 692 6 l 445 6 q 440 6 434 5 q 428 4 422 2 q 411 1 400 0 q 389 0 378 0 q 366 0 355 0 q 344 1 332 2 q 326 4 321 5 q 315 6 310 6 l 64 6 l 56 14 l 56 261 q 56 265 56 269 q 54 274 54 278 q 52 288 51 298 q 50 309 50 319 l 50 800 l 64 814 l 212 814 z m 678 787 l 557 787 l 557 318 q 557 310 555 298 q 552 286 550 278 q 542 250 525 226 q 508 202 486 184 q 463 166 435 157 q 408 147 378 147 q 343 147 311 160 q 278 174 254 197 q 228 220 213 252 q 198 283 198 318 l 198 787 l 76 787 l 76 320 q 76 296 82 271 q 86 246 95 224 q 112 180 140 143 q 168 106 205 81 q 242 55 286 41 q 330 26 378 26 q 438 26 492 49 q 547 72 588 112 q 630 152 654 205 q 678 258 678 320 z"},"]":{"x_min":0,"x_max":377,"ha":377,"o":"m 50 646 l 50 800 l 64 814 l 314 814 l 327 800 l 327 14 l 314 0 l 64 0 l 50 14 l 50 166 l 56 174 l 56 640 z m 76 787 l 76 660 l 166 660 l 179 646 l 179 166 l 166 154 l 76 154 l 76 26 l 300 26 l 300 787 z"},"U":{"x_min":0,"x_max":755,"ha":755,"o":"m 218 807 l 537 807 l 544 814 l 692 814 l 705 800 l 705 319 q 705 309 704 298 q 702 288 701 278 q 700 274 700 270 q 698 265 698 261 l 698 14 l 692 6 l 445 6 q 440 6 434 5 q 428 4 422 2 q 411 1 400 0 q 389 0 378 0 q 366 0 355 0 q 344 1 332 2 q 326 4 321 5 q 315 6 310 6 l 64 6 l 56 14 l 56 261 q 56 265 56 269 q 54 274 54 278 q 52 288 51 298 q 50 309 50 319 l 50 800 l 64 814 l 212 814 z m 678 787 l 557 787 l 557 318 q 557 310 555 298 q 552 286 550 278 q 542 250 525 226 q 508 202 486 184 q 463 166 435 157 q 408 147 378 147 q 343 147 311 160 q 278 174 254 197 q 228 220 213 252 q 198 283 198 318 l 198 787 l 76 787 l 76 320 q 76 296 82 271 q 86 246 95 224 q 112 180 140 143 q 168 106 205 81 q 242 55 286 41 q 330 26 378 26 q 438 26 492 49 q 547 72 588 112 q 630 152 654 205 q 678 258 678 320 z"},"o":{"x_min":0,"x_max":914,"ha":914,"o":"m 64 807 l 383 807 q 388 807 394 808 q 400 810 405 810 q 431 814 457 814 q 482 814 508 810 q 513 810 519 808 q 525 807 530 807 l 850 807 l 858 800 l 858 480 q 858 475 859 468 q 860 462 861 456 q 864 432 864 406 q 864 382 861 358 q 860 352 859 346 q 858 339 858 333 l 858 14 l 850 6 l 530 6 q 524 6 518 5 q 511 4 505 3 q 481 0 457 0 q 432 0 407 3 q 402 4 395 5 q 388 6 383 6 l 64 6 l 56 14 l 56 333 q 56 338 55 345 q 54 351 53 356 q 50 381 50 406 q 50 433 53 458 q 54 464 55 470 q 56 476 56 480 l 56 800 z m 457 787 q 404 787 356 774 q 308 760 265 735 q 222 710 188 676 q 154 641 128 598 q 104 556 90 508 q 76 459 76 406 q 76 354 90 305 q 104 256 128 214 q 153 172 188 138 q 222 103 265 78 q 307 54 356 40 q 404 26 457 26 q 510 26 558 40 q 606 54 649 78 q 692 103 726 138 q 760 172 786 215 q 810 257 824 306 q 838 354 838 406 q 838 458 824 507 q 810 556 785 598 q 760 640 726 675 q 691 710 649 735 q 606 760 558 773 q 509 787 457 787 z m 457 661 q 509 661 555 641 q 602 620 636 586 q 670 551 691 505 q 711 458 711 406 q 711 354 691 308 q 670 262 636 228 q 602 193 555 173 q 509 152 457 152 q 405 152 359 172 q 312 192 278 227 q 243 262 223 308 q 202 354 202 406 q 202 459 223 505 q 243 552 278 586 q 312 620 358 641 q 404 661 457 661 z"},"N":{"x_min":0,"x_max":826,"ha":826,"o":"m 234 807 l 596 807 l 604 814 l 763 814 l 776 800 l 776 14 l 763 0 l 604 0 l 592 6 l 230 6 l 222 0 l 64 0 l 50 14 l 50 800 l 64 814 l 222 814 l 234 808 z m 750 787 l 616 787 l 616 261 l 592 254 l 216 787 l 76 787 l 76 26 l 210 26 l 210 551 l 234 558 l 610 26 l 750 26 z"},"+":{"x_min":0,"x_max":398,"ha":398,"o":"m 160 299 l 160 229 l 237 229 l 237 299 l 250 312 l 320 312 l 320 394 l 250 394 l 237 407 l 237 477 l 160 477 l 160 407 l 146 394 l 76 394 l 76 312 l 146 312 z m 56 14 l 56 292 l 50 299 l 50 407 l 56 414 l 56 800 l 64 807 l 334 807 l 340 800 l 340 414 l 348 407 l 348 299 l 340 292 l 340 14 l 334 6 l 64 6 z"},"G":{"x_min":0,"x_max":914,"ha":914,"o":"m 64 807 l 383 807 q 388 807 394 808 q 400 810 405 810 q 431 814 457 814 q 482 814 509 810 q 514 810 520 808 q 526 807 530 807 l 850 807 l 858 800 l 858 478 l 864 471 l 864 404 q 864 392 863 380 q 862 368 860 356 q 860 350 859 344 q 858 339 858 334 l 858 14 l 850 6 l 530 6 q 525 6 518 5 q 512 4 506 3 q 482 0 457 0 q 432 0 407 3 q 402 4 395 5 q 388 6 383 6 l 64 6 l 56 14 l 56 333 q 56 338 55 344 q 54 350 53 355 q 50 380 50 406 q 50 433 53 458 q 54 464 55 470 q 56 476 56 480 l 56 800 z m 457 787 q 404 787 356 774 q 308 760 265 735 q 222 710 188 676 q 154 641 128 598 q 104 556 90 508 q 76 459 76 406 q 76 354 90 305 q 104 256 128 214 q 153 172 188 138 q 222 103 265 78 q 307 54 356 40 q 404 26 457 26 q 509 26 557 40 q 606 54 648 78 q 690 102 725 137 q 760 172 785 214 q 810 256 824 304 q 838 352 838 404 l 838 458 l 426 458 l 426 350 l 688 350 l 700 333 q 688 293 664 260 q 640 226 608 203 q 576 179 537 166 q 498 152 457 152 q 405 152 359 172 q 312 192 278 227 q 243 262 223 308 q 202 354 202 406 q 202 459 223 505 q 243 552 278 586 q 312 620 358 641 q 404 661 457 661 q 504 661 548 644 q 592 627 627 596 l 716 685 q 664 734 596 761 q 530 787 457 787 z"},"q":{"x_min":0,"x_max":914,"ha":914,"o":"m 64 807 l 383 807 q 388 807 394 808 q 400 810 405 810 q 431 814 457 814 q 482 814 508 810 q 513 810 519 808 q 525 807 530 807 l 850 807 l 858 800 l 858 480 q 858 475 859 468 q 860 462 861 456 q 864 432 864 406 q 864 382 861 358 q 860 352 859 346 q 858 339 858 333 l 858 120 l 860 117 l 860 98 l 858 96 l 858 14 l 850 6 l 768 6 l 766 4 l 746 4 l 744 6 l 530 6 q 524 6 518 5 q 511 4 505 3 q 481 0 457 0 q 432 0 407 3 q 402 4 395 5 q 388 6 383 6 l 64 6 l 56 14 l 56 333 q 56 338 55 345 q 54 351 53 356 q 50 381 50 406 q 50 433 53 458 q 54 464 55 470 q 56 476 56 480 l 56 800 z m 457 787 q 404 787 356 774 q 308 760 265 735 q 222 710 188 676 q 154 641 128 598 q 104 556 90 508 q 76 459 76 406 q 76 354 90 305 q 104 256 128 214 q 153 172 188 138 q 222 103 265 78 q 307 54 356 40 q 404 26 457 26 q 516 26 572 44 q 628 62 676 96 l 694 94 l 756 32 l 832 108 l 769 170 l 768 188 q 802 236 820 292 q 838 348 838 406 q 838 458 824 507 q 810 556 785 598 q 760 640 726 675 q 691 710 649 735 q 606 760 558 773 q 509 787 457 787 z m 658 281 l 542 397 l 467 321 l 582 205 l 580 184 q 552 168 520 160 q 489 152 457 152 q 405 152 359 172 q 312 192 278 227 q 243 262 223 308 q 202 354 202 406 q 202 459 223 505 q 243 552 278 586 q 312 620 358 641 q 404 661 457 661 q 509 661 555 641 q 602 620 636 586 q 670 551 691 505 q 711 458 711 406 q 711 342 680 284 z"},"d":{"x_min":0,"x_max":755,"ha":755,"o":"m 692 807 l 698 800 l 698 480 q 698 475 700 468 q 701 462 702 456 q 705 432 705 406 q 705 382 702 358 q 702 352 700 346 q 698 339 698 333 l 698 14 l 692 6 l 372 6 q 366 6 360 5 q 354 4 348 3 q 323 0 298 0 l 64 0 l 50 14 l 50 800 l 64 814 l 298 814 q 324 814 350 810 q 356 810 361 808 q 367 807 372 807 z m 298 787 l 76 787 l 76 26 l 298 26 q 350 26 399 40 q 448 54 490 78 q 532 103 567 138 q 602 172 626 215 q 652 257 665 306 q 678 354 678 406 q 678 458 665 507 q 651 556 626 598 q 602 640 567 675 q 532 710 490 735 q 448 760 399 773 q 350 787 298 787 z m 298 152 l 236 152 l 210 166 l 210 648 l 222 661 l 298 661 q 350 661 396 641 q 442 620 477 586 q 512 551 532 505 q 552 458 552 406 q 552 354 532 308 q 512 262 477 228 q 442 193 396 173 q 350 152 298 152 z"},"1":{"x_min":0,"x_max":396,"ha":396,"o":"m 56 518 l 50 520 l 50 702 q 51 704 53 709 q 55 714 56 714 l 56 802 l 64 809 l 171 809 q 172 811 177 813 q 182 816 184 816 l 332 816 l 346 802 l 346 16 l 332 2 l 184 2 l 178 9 l 64 9 l 56 16 z m 76 549 l 176 630 l 198 620 l 198 29 l 318 29 l 318 789 l 189 789 l 76 696 z"},"5":{"x_min":0,"x_max":597,"ha":597,"o":"m 540 384 q 540 380 541 375 q 542 370 544 366 q 546 356 546 345 q 547 334 547 324 l 547 248 q 547 238 546 227 q 546 216 544 206 q 542 202 541 197 q 540 192 540 188 l 540 14 l 533 6 l 358 6 q 354 6 348 5 q 343 4 339 3 q 329 2 319 0 q 308 0 298 0 q 277 0 258 3 q 254 4 248 5 q 243 6 239 6 l 64 6 l 56 14 l 56 190 q 56 194 55 199 q 54 204 53 208 q 51 218 50 228 q 50 238 50 248 l 56 254 l 56 400 l 50 406 l 50 800 l 64 814 l 533 814 l 546 800 l 546 646 l 540 640 z m 217 546 l 204 560 l 204 646 l 217 660 l 520 660 l 520 787 l 76 787 l 76 420 l 298 420 q 318 420 335 412 q 352 404 366 392 q 378 378 386 361 q 394 344 394 324 l 394 248 q 394 228 386 211 q 378 194 366 180 q 352 168 335 160 q 318 152 298 152 q 281 152 265 159 q 249 165 236 176 q 224 187 215 202 q 207 217 204 234 l 77 234 q 80 191 98 153 q 117 114 147 86 q 176 58 216 42 q 254 26 298 26 q 344 26 384 44 q 425 61 455 91 q 486 121 503 161 q 520 202 520 248 l 520 324 q 520 371 503 412 q 486 452 456 482 q 426 512 386 529 q 345 546 298 546 z"}}}
